<?xml version="1.0" encoding="utf-8"?>
<!-- Generator: Adobe Illustrator 24.0.2, SVG Export Plug-In . SVG Version: 6.00 Build 0)  -->
<svg version="1.1" id="accessories" xmlns="http://www.w3.org/2000/svg" xmlns:xlink="http://www.w3.org/1999/xlink" x="0px"
	 y="0px" viewBox="0 0 32 32" style="enable-background:new 0 0 32 32;" xml:space="preserve">
<style type="text/css">
	.st0{fill:#FFFFFF;}
</style>
<path id="accesories" class="st0" d="M29.8,9.9h-1.4c-0.3,0-0.6,0.3-0.6,0.6V11c0,0.1,0.1,0.2,0.2,0.2h0.7v3l-0.5,0.4
	c0-0.1-0.1-0.2-0.1-0.3c-0.6-0.6-1.9-0.6-1.9-0.6s0-1.9-1.9-2.5c-4.4-1.2-6.9,0-6.9,0l-0.6-0.6h-3.1l-0.6,0.6c-2.5-1.2-7.5,0-7.5,0
	l-1.9,0.6v1.9c0,0-0.6,0-1.2,0.6C2,14.8,2.4,18,2.5,19c0,0.2,0.1,0.4,0.3,0.5c0.4,0.4,1.3,1,2.3,1c3.1,3.1,7.9,0.6,8.5-0.6
	c0.6-1.2,2.7-1.9,3.9,0c1.2,2.5,6.9,2.5,8.1,0.6c1.4,0,2.1-0.7,2.3-1c0.1-0.1,0.2-0.3,0.2-0.5c0.1-0.6,0.3-2.5,0.2-3.8l1-0.7v-3.4
	h0.7c0.1,0,0.2-0.1,0.2-0.2v-0.5C30.4,10.2,30.1,9.9,29.8,9.9z"/>
</svg>
