<?xml version="1.0" encoding="utf-8"?>
<!-- Generator: Adobe Illustrator 24.0.2, SVG Export Plug-In . SVG Version: 6.00 Build 0)  -->
<svg version="1.1" id="Calque_1" xmlns="http://www.w3.org/2000/svg" xmlns:xlink="http://www.w3.org/1999/xlink" x="0px" y="0px"
	 viewBox="0 0 24 24" style="enable-background:new 0 0 24 24;" xml:space="preserve">
<style type="text/css">
	.st0{fill:#FFFFFF;}
</style>
<g>
	<path class="st0" d="M8,2.8l0.5-1c0,0,7.8,0,8.3,0s1.4,0.5,1.7,1H8z"/>
	<path class="st0" d="M17.8,3.9L19,3.8c0,0,3.9,6.8,4.2,7.2c0.3,0.4,0.3,1.5-0.1,2L17.8,3.9z"/>
	<path class="st0" d="M22,13.2l0.6,1c0,0-4,6.7-4.2,7.1c-0.2,0.4-1.2,1-1.7,0.9L22,13.2z"/>
	<path class="st0" d="M16.1,21.2l-0.5,1c0,0-7.8,0-8.3,0s-1.4-0.5-1.7-1L16.1,21.2z"/>
	<path class="st0" d="M6.2,20.1L5,20.2c0,0-3.9-6.8-4.1-7.2c-0.3-0.4-0.3-1.5,0.1-2L6.2,20.1z"/>
	<path class="st0" d="M2,10.8l-0.6-1c0,0,4-6.7,4.2-7.1s1.2-1,1.7-0.9L2,10.8z"/>
	<path class="st0" d="M8.9,8.1l0.4,0.8l3.5,6.9c0,0-1.1,0.1-1.6-0.9l-2.4-4.6c-0.8,1.5-2,4.1-2.1,4.4c-0.2,0.4-1.1,1.1-1.7,1
		L8.9,8.1z"/>
	<path class="st0" d="M15.1,15.7l-0.4-0.8L11.1,8c0,0,1.1-0.1,1.6,0.9l2.4,4.6c0.8-1.5,2-4.1,2.1-4.4c0.2-0.4,1.1-1.1,1.7-1
		L15.1,15.7z"/>
</g>
</svg>
