<?xml version="1.0" encoding="utf-8"?>
<!-- Generator: Adobe Illustrator 24.0.2, SVG Export Plug-In . SVG Version: 6.00 Build 0)  -->
<svg version="1.1" id="Battery_1_" xmlns="http://www.w3.org/2000/svg" xmlns:xlink="http://www.w3.org/1999/xlink" x="0px" y="0px"
	 viewBox="0 0 32 32" style="enable-background:new 0 0 32 32;" xml:space="preserve">
<style type="text/css">
	.st0{fill:#FFFFFF;}
</style>
<path id="Battery" class="st0" d="M30.8,5.6h-0.5c-0.2-1.8-1.2-3.3-2.8-4.2C25.2,0,21.7,0,19.2,1.5c-1.6,0.9-2.5,2.3-2.9,3.9
	c-0.2-0.8-0.6-1.4-1.1-1.9C14.6,3,13.9,2.8,13,2.8c-0.4-0.1-0.9-0.1-1.4-0.1c-0.3,0-0.5,0-0.8,0c-0.5,0-1.1,0-1.6,0.2L8.6,2.7
	L8.1,2.8v0.7L11,3.8l0.4-0.1V3.3c0.1,0,0.3-0.1,0.4-0.1c0.3,0.1,0.6,0.3,0.9,0.5c0.8,0.7,1.1,1.7,1,2.8h-3.2C10,6.6,9.6,7,9.6,7.6
	v16.9c0,0.5,0.4,0.9,0.9,0.9h10.7c0.5,0,0.9-0.4,0.9-0.9V7.6c0-0.5-0.4-0.9-0.9-0.9H19c0-2.3,1.2-3.6,2.3-4.2c1.7-1,4.2-1,5.9,0
	c1.2,0.7,2,1.8,2.2,3.2H29c-0.1,0-0.2,0.1-0.2,0.2V8c0,0.1,0.1,0.2,0.2,0.2h1.9C30.9,8.2,31,8.1,31,8V5.7C31,5.6,30.9,5.6,30.8,5.6z
	 M15,3.8c0.8,0.6,1.2,1.7,1.1,2.8h-0.5c0.1-1.2-0.3-2.4-1.1-3.1c-0.1-0.1-0.1-0.1-0.2-0.1C14.6,3.5,14.8,3.6,15,3.8z M10.6,3.1
	L10.6,3.1L10.6,3.1C10.6,3.1,10.6,3.1,10.6,3.1z M14.3,3.8c0.8,0.7,1.1,1.7,1,2.8h-0.4c0.1-1.2-0.3-2.4-1.1-3.1
	c-0.1-0.1-0.3-0.2-0.4-0.3C13.7,3.3,14,3.5,14.3,3.8z M11,3.1C11,3.1,11,3.1,11,3.1L11,3.1L11,3.1z M12.9,3.5
	c-0.1-0.1-0.3-0.2-0.4-0.3c0.3,0.1,0.7,0.3,0.9,0.6c0.8,0.7,1.1,1.7,1,2.8h-0.4C14.2,5.4,13.8,4.2,12.9,3.5z M15,20.6l0.3-3.8h-2.7
	l3.8-5.8l-0.3,4l0,0.1h3.1L15,20.6z M17.3,6.6c0-2,1.1-3.3,2.2-4c-0.9,1-1.5,2.4-1.5,4H17.3z"/>
</svg>
