<?xml version="1.0" encoding="utf-8"?>
<!-- Generator: Adobe Illustrator 24.0.2, SVG Export Plug-In . SVG Version: 6.00 Build 0)  -->
<svg version="1.1" id="dashboard" xmlns="http://www.w3.org/2000/svg" xmlns:xlink="http://www.w3.org/1999/xlink" x="0px" y="0px"
	 viewBox="0 0 23 23" style="enable-background:new 0 0 23 23;" xml:space="preserve">
<style type="text/css">
	.st0{fill:none;stroke:#565656;}
</style>
<path id="squareorange" class="st0 orange" d="M3.3,12.5h5.9c0.7,0,1.3,0.6,1.3,1.3v5.9c0,0.7-0.6,1.3-1.3,1.3H3.3C2.6,21,2,20.4,2,19.7
	v-5.9C2,13.1,2.6,12.5,3.3,12.5z"/>
<path id="squarepink" class="st0 pink" d="M13.8,12.5h5.9c0.7,0,1.3,0.6,1.3,1.3v5.9c0,0.7-0.6,1.3-1.3,1.3h-5.9c-0.7,0-1.3-0.6-1.3-1.3
	v-5.9C12.5,13.1,13.1,12.5,13.8,12.5z"/>
<path id="squaregrey" class="st0 grey" d="M13.8,2h5.9C20.4,2,21,2.6,21,3.3v5.9c0,0.7-0.6,1.3-1.3,1.3h-5.9c-0.7,0-1.3-0.6-1.3-1.3V3.3
	C12.5,2.6,13.1,2,13.8,2z"/>
<path id="squareblue" class="st0 teal" d="M3.3,2h5.9c0.7,0,1.3,0.6,1.3,1.3v5.9c0,0.7-0.6,1.3-1.3,1.3H3.3C2.6,10.5,2,9.9,2,9.2V3.3
	C2,2.6,2.6,2,3.3,2z"/>
</svg>
