<svg width="72" height="52" viewBox="0 0 72 52" fill="none" xmlns="http://www.w3.org/2000/svg">
<path d="M10.9082 1.21154L26.3585 1.19262C33.4167 1.14531 38.2798 1.48592 35.6874 7.61686C32.13 16.0185 35.6874 7.61686 32.13 16.0185C28.4873 24.6283 29.0456 26.3125 20.8615 26.1989L7.77649 26.3503L1.91992 26.4165L4.45556 20.3802L8.36309 11.1365L16.7269 11.0797L13.5668 18.5258L19.6315 18.6109C23.3498 18.5825 23.0376 17.504 24.9677 12.9057C26.3018 9.72674 27.9007 6.85996 25.9139 6.93565L8.77939 7.03972L10.9082 1.21154Z" fill="#FF00B1"/>
<path d="M40.1997 1.13536L71.1098 1.21106L68.2998 8.07052L48.7716 8.12729L45.3939 16.529L51.733 16.5479L48.327 25.1009L42.4515 25.2145L34.362 44.9319L22.9517 51.6967L42.0068 3.55747L40.1997 1.13536Z" fill="#FF00B1"/>
<path d="M58.7069 11.1265L67.0707 11.0697L59.4354 29.368L72.0001 29.4626L69.1428 36.2085L48.167 36.3599L58.7069 11.1265Z" fill="#FF00B1"/>
<path d="M9.77293 0.0761964L25.2233 0.0572739C32.2814 0.0099672 37.1446 0.350575 34.5522 6.48152C30.9947 14.8832 34.5522 6.48152 30.9947 14.8832C27.3521 23.493 27.9103 25.1771 19.7263 25.0636L6.64123 25.215L0.784668 25.2812L3.3203 19.2449L7.22784 10.0011L15.5917 9.94437L12.4316 17.3904L18.4963 17.4756C22.2146 17.4472 21.9024 16.3686 23.8325 11.7704C25.1665 8.5914 26.7655 5.72461 24.7786 5.8003L7.64413 5.90438L9.77293 0.0761964Z" fill="#01FFFF"/>
<path d="M39.0642 0L69.9743 0.0756906L67.1643 6.93516L47.6361 6.99192L44.2584 15.3936L50.5975 15.4125L47.1915 23.9656L41.316 24.0791L33.2265 43.7965L21.8162 50.5614L40.8713 2.4221L39.0642 0Z" fill="#01FFFF"/>
<path d="M57.5717 9.99117L65.9355 9.93441L58.3002 28.2326L70.8648 28.3272L68.0075 35.0732L47.0317 35.2245L57.5717 9.99117Z" fill="#01FFFF"/>
<path d="M10.3406 0.643377L25.7909 0.624454C32.8491 0.577148 37.7122 0.917756 35.1198 7.0487C31.5623 15.4504 35.1198 7.0487 31.5623 15.4504C27.9197 24.0602 28.4779 25.7443 20.2939 25.6308L7.20886 25.7821L1.35229 25.8484L3.88793 19.812L7.79546 10.5683L16.1593 10.5115L12.9992 17.9576L19.0639 18.0428C22.7822 18.0144 22.47 16.9358 24.4001 12.3376C25.7341 9.15858 27.3331 6.29179 25.3462 6.36748L8.21176 6.47156L10.3406 0.643377Z" fill="white"/>
<path d="M39.6318 0.567682L70.542 0.643373L67.732 7.50284L48.2038 7.55961L44.8261 15.9613L51.1652 15.9802L47.7591 24.5332L41.8836 24.6468L33.7942 44.3642L22.3838 51.129L41.4389 2.98978L39.6318 0.567682Z" fill="white"/>
<path d="M58.1393 10.5589L66.5031 10.5021L58.8678 28.8003L71.4325 28.8949L68.5751 35.6408L47.5994 35.7922L58.1393 10.5589Z" fill="white"/>
</svg>
