<svg width="311" height="209" viewBox="0 0 311 209" fill="none" xmlns="http://www.w3.org/2000/svg">
<path d="M40.619 0.900477L108.993 0.823827C140.233 0.634222 161.731 2.05424 150.266 27.5784C134.531 62.603 150.266 27.5784 134.531 62.603C118.406 98.4949 120.869 105.502 84.6768 105.002L26.7728 105.639L0.871094 105.926L12.1126 80.7648L29.3904 42.2627L66.4094 42.0166L52.4346 73.0272L79.2745 73.3984C95.7084 73.2612 94.3375 68.7873 102.871 49.617C108.766 36.3769 115.852 24.4116 107.061 24.7585L31.2454 25.1821L40.619 0.900477Z" fill="white"/>
<path d="M168.86 0.810059L303.851 0.810059L291.459 29.3403L206.273 29.5954L191.511 64.2007L219.193 64.2805L204.317 99.4639L178.684 99.9303L143.417 181.144L93.6201 208.98L176.741 10.7839L168.86 0.810059Z" fill="white"/>
<path d="M250.253 46.3998L287.866 46.1543L253.526 122.211L310.035 122.622L297.172 150.654L202.858 151.27L250.253 46.3998Z" fill="white"/>
</svg>
