<svg xmlns="http://www.w3.org/2000/svg" viewBox="0 0 24 24"><g class="nc-icon-wrapper"><path d="M4,6H9A1,1,0,0,0,9,4H6V3A1,1,0,0,0,4,3V4H1A1,1,0,0,0,1,6H4Z" data-color="color-2"/><path d="M23,4H20V3a1,1,0,0,0-2,0V4H15a1,1,0,0,0,0,2h8a1,1,0,0,0,0-2Z" data-color="color-2"/><path d="M20,9V7H18V9H6V7H4V9a2,2,0,0,0,0,4H7.219l.533,2.132A6.009,6.009,0,0,0,3,21a1,1,0,0,0,2,0,4,4,0,0,1,4-4h6a4,4,0,0,1,4,4,1,1,0,0,0,2,0,6.009,6.009,0,0,0-4.752-5.868L16.781,13H20a2,2,0,0,0,0-4Zm-8,5.5A1.5,1.5,0,1,1,13.5,13,1.5,1.5,0,0,1,12,14.5Z"/></g></svg>