<svg width="25" height="25" viewBox="0 0 25 25" fill="none" xmlns="http://www.w3.org/2000/svg">
            <path d="M12.5 22.5C18.0228 22.5 22.5 18.0228 22.5 12.5C22.5 6.97715 18.0228 2.5 12.5 2.5C6.97715 2.5 2.5 6.97715 2.5 12.5C2.5 18.0228 6.97715 22.5 12.5 22.5Z" stroke="#ff01b1" stroke-width="0.75" stroke-miterlimit="10"/>
            <path d="M12.5 22.5C18.0228 22.5 22.5 18.0228 22.5 12.5C22.5 6.97715 18.0228 2.5 12.5 2.5C6.97715 2.5 2.5 6.97715 2.5 12.5C2.5 18.0228 6.97715 22.5 12.5 22.5Z" stroke="#ff01b1" stroke-width="2" stroke-miterlimit="10"/>
            <path opacity="0.5" d="M12.5 17.5C15.2614 17.5 17.5 15.2614 17.5 12.5C17.5 9.73858 15.2614 7.5 12.5 7.5C9.73858 7.5 7.5 9.73858 7.5 12.5C7.5 15.2614 9.73858 17.5 12.5 17.5Z" stroke="black" stroke-width="0.75" stroke-miterlimit="10"/>
            <path opacity="1" d="M12.5 14C13.3284 14 14 13.3284 14 12.5C14 11.6716 13.3284 11 12.5 11C11.6716 11 11 11.6716 11 12.5C11 13.3284 11.6716 14 12.5 14Z" fill="white"/>
            <path d="M13.8 5.99999H11.2L12.5 4.79999L13.8 5.99999Z" fill="#ff01b1"/>
            <path d="M11.2 19H13.8L12.5 20.2L11.2 19Z" fill="#ff01b1"/>
            <path d="M19 13.8V11.2L20.2 12.5L19 13.8Z" fill="#ff01b1"/>
            <path d="M6.00005 11.2V13.8L4.80005 12.5L6.00005 11.2Z" fill="#ff01b1"/>
            </svg>