<svg xmlns="http://www.w3.org/2000/svg" viewBox="0 0 32 32"><g class="nc-icon-wrapper"><path d="M30,8H27.979A12.969,12.969,0,0,0,4.021,8H2a2,2,0,0,0-2,2V22a2,2,0,0,0,2,2H4.845c2.1,4,6.015,8,11.155,8s9.051-4,11.155-8H30a2,2,0,0,0,2-2V10A2,2,0,0,0,30,8Zm-4,7H6a1,1,0,0,1,0-2H26a1,1,0,0,1,0,2ZM16,2a11.01,11.01,0,0,1,9.778,6H6.222A11.01,11.01,0,0,1,16,2Zm0,28c-3.278,0-6.622-2.306-8.861-6H12a1,1,0,0,0,.852-.476l1.642-2.668A1.766,1.766,0,0,1,16.018,20a1.851,1.851,0,0,1,1.532.841l1.7,2.692a1,1,0,0,0,.846.468h4.77C22.622,27.694,19.278,30,16,30Z"/></g></svg>