<svg xmlns="http://www.w3.org/2000/svg" viewBox="0 0 32 32"><g class="nc-icon-wrapper"><path d="M8.549,12.791l-3.67-3.67A3,3,0,1,1,9.121,4.879l3.67,3.669a6.024,6.024,0,1,0-4.242,4.243Z" data-color="color-2"/><path d="M8.549,19.209l-3.67,3.67a3,3,0,1,0,4.242,4.242l3.67-3.669a6.024,6.024,0,1,1-4.242-4.243Z" data-color="color-2"/><path d="M23.451,12.791l3.67-3.67a3,3,0,1,0-4.242-4.242l-3.67,3.669a6.024,6.024,0,1,1,4.242,4.243Z" data-color="color-2"/><path d="M23.451,19.209l3.67,3.67a3,3,0,1,1-4.242,4.242l-3.67-3.669a6.024,6.024,0,1,0,4.242-4.243Z" data-color="color-2"/><path d="M20,18.586V13.414l5.707-5.707a1,1,0,1,0-1.414-1.414L18.586,12H13.414L7.707,6.293A1,1,0,0,0,6.293,7.707L12,13.414v5.172L6.293,24.293a1,1,0,1,0,1.414,1.414L13.414,20h5.172l5.707,5.707a1,1,0,0,0,1.414-1.414Z"/></g></svg>