<?xml version="1.0" encoding="utf-8"?>
<!-- Generator: Adobe Illustrator 24.0.2, SVG Export Plug-In . SVG Version: 6.00 Build 0)  -->
<svg version="1.1" id="map_1_" xmlns="http://www.w3.org/2000/svg" xmlns:xlink="http://www.w3.org/1999/xlink" x="0px" y="0px"
	 viewBox="0 0 23 23" style="enable-background:new 0 0 23 23;" xml:space="preserve">
<style type="text/css">
	.st0{fill-rule:evenodd;clip-rule:evenodd;fill:#565656;}
</style>
<path id="map" class="st0" d="M20.4,3.1c0.1,0.1,0.1,0.1,0.2,0.2c0,0.1,0.1,0.2,0.1,0.2v14.7c0,0.1,0,0.3-0.1,0.4s-0.2,0.2-0.3,0.2
	L14.5,20c-0.1,0-0.1,0-0.2,0l-5.6-1.1L3.1,20c-0.1,0-0.2,0-0.2,0l-0.2-0.1c-0.1-0.1-0.1-0.1-0.2-0.2c0-0.1-0.1-0.2-0.1-0.2V4.7
	c0-0.1,0-0.3,0.1-0.4s0.2-0.2,0.3-0.2L8.5,3c0.1,0,0.1,0,0.2,0l5.6,1.1L19.9,3c0.1,0,0.2,0,0.2,0C20.3,3,20.3,3.1,20.4,3.1z
	 M13.8,5.2L9.2,4.3v13.6l4.6,0.9C13.8,18.8,13.8,5.2,13.8,5.2z M14.9,18.7l4.6-0.9V4.3l-4.6,0.9V18.7z M8.1,17.8V4.3L3.5,5.2v13.6
	L8.1,17.8z"/>
</svg>
