<?xml version="1.0" encoding="utf-8"?>
<!-- Generator: Adobe Illustrator 24.0.2, SVG Export Plug-In . SVG Version: 6.00 Build 0)  -->
<svg version="1.1" id="community" xmlns="http://www.w3.org/2000/svg" xmlns:xlink="http://www.w3.org/1999/xlink" x="0px" y="0px"
	 viewBox="0 0 23 23" style="enable-background:new 0 0 23 23;" xml:space="preserve">
<style type="text/css">
	.st0{fill:#565656;}
</style>
<path id="community_1_" class="st0" d="M5.4,17.5c-0.3,0-0.6-0.2-0.8-0.6L1,8.6l5.3,2.1v0.2c-0.1,0.2-0.1,0.4-0.1,0.7
	c0,1.1,0.7,2,1.7,2.2c0.1,0,0.2,0,0.3,0c1,0,1.8-0.8,2-1.9c0.2-1.2-0.6-2.3-1.7-2.5L8,9.3l3.5-3.8L15,9.4l-0.4,0.1
	c-0.9,0.2-1.7,1.1-1.7,2.2v0.1c0,1.2,0.9,2.2,2,2.2H15c1.1,0,1.9-1.1,1.9-2.3c0-0.3,0-0.5-0.1-0.7l-0.1-0.3L22,8.5l-3.7,8.4
	c-0.2,0.3-0.5,0.6-0.8,0.6H5.4z"/>
</svg>
