<?xml version="1.0" encoding="utf-8"?>
<!-- Generator: Adobe Illustrator 24.0.2, SVG Export Plug-In . SVG Version: 6.00 Build 0)  -->
<svg version="1.1" id="forms" xmlns="http://www.w3.org/2000/svg" xmlns:xlink="http://www.w3.org/1999/xlink" x="0px" y="0px"
	 viewBox="0 0 23 23" style="enable-background:new 0 0 23 23;" xml:space="preserve">
<style type="text/css">
	.st0{fill:none;stroke:#565656;}
</style>
<path id="toplayer" class="st0" d="M6.7,5.6h9.5c0.7,0,1.2,0.5,1.2,1.2l0,0c0,0.7-0.5,1.2-1.2,1.2H6.7C6,7.9,5.6,7.5,5.6,6.7l0,0
	C5.6,6,6,5.6,6.7,5.6z"/>
<path id="midlayer" class="st0" d="M6.7,10.3h9.5c0.7,0,1.2,0.5,1.2,1.2l0,0c0,0.7-0.5,1.2-1.2,1.2H6.7c-0.7,0-1.2-0.5-1.2-1.2l0,0
	C5.6,10.8,6,10.3,6.7,10.3z"/>
<path id="botlayer" class="st0" d="M6.7,15.1h9.5c0.7,0,1.2,0.5,1.2,1.2l0,0c0,0.7-0.5,1.2-1.2,1.2H6.7c-0.7,0-1.2-0.5-1.2-1.2l0,0
	C5.6,15.5,6,15.1,6.7,15.1z"/>
<path id="cadre" class="st0" d="M5,3.2H18c1,0,1.8,0.8,1.8,1.8V18c0,1-0.8,1.8-1.8,1.8H5c-1,0-1.8-0.8-1.8-1.8V5C3.2,4,4,3.2,5,3.2z
	"/>
</svg>
