<?xml version="1.0" encoding="utf-8"?>
<!-- Generator: Adobe Illustrator 24.0.2, SVG Export Plug-In . SVG Version: 6.00 Build 0)  -->
<svg version="1.1" id="myspots" xmlns="http://www.w3.org/2000/svg" xmlns:xlink="http://www.w3.org/1999/xlink" x="0px" y="0px"
	 viewBox="0 0 23 23" style="enable-background:new 0 0 23 23;" xml:space="preserve">
<style type="text/css">
	.st0{fill:#565656;}
</style>
<path id="spotL" class="st0" d="M6.2,14.4c1.2,0,2.1-1,2.1-2.2s-0.9-2.2-2.1-2.2s-2.1,1-2.1,2.2C4.1,13.4,5.1,14.4,6.2,14.4z
	 M6.2,7.7c2.6,0,4.8,2.2,4.8,4.9c0,2.7-4.8,8.8-4.8,8.8s-4.8-6.1-4.8-8.8C1.5,9.9,3.6,7.7,6.2,7.7z"/>
<path id="spotB" class="st0" d="M18.4,12.6c0.7,0,1.3-0.6,1.3-1.3c0-0.7-0.6-1.3-1.3-1.3s-1.3,0.6-1.3,1.3
	C17.1,12,17.7,12.6,18.4,12.6z M18.4,8.5c1.7,0,3,1.4,3,3c0,1.7-3,5.5-3,5.5s-3-3.8-3-5.5C15.4,9.8,16.8,8.5,18.4,8.5z"/>
<path id="spotT" class="st0" d="M12.6,3.7c0.5,0,1-0.5,1-1s-0.4-1-1-1s-1,0.5-1,1C11.7,3.2,12.1,3.7,12.6,3.7z M12.6,0.5
	c1.2,0,2.2,1,2.2,2.3c0,1.3-2.2,4.2-2.2,4.2s-2.2-2.9-2.2-4.2C10.5,1.5,11.4,0.5,12.6,0.5z"/>
</svg>
