<?xml version="1.0" encoding="utf-8"?>
<!-- Generator: Adobe Illustrator 24.0.2, SVG Export Plug-In . SVG Version: 6.00 Build 0)  -->
<svg version="1.1" id="Nav_frame" xmlns="http://www.w3.org/2000/svg" xmlns:xlink="http://www.w3.org/1999/xlink" x="0px" y="0px"
	 viewBox="0 0 275 45" style="enable-background:new 0 0 275 45;" xml:space="preserve">
<style type="text/css">
	.st0{fill:none;stroke:#FFAF44;stroke-miterlimit:10;}
	.st1{fill:none;stroke:#FFAF44;stroke-width:4;stroke-miterlimit:10;}
	.st2{fill:#FFAF44;}
	.st3{fill:none;stroke:#FFAF44;stroke-width:0.5;stroke-miterlimit:10;}
	.st4{fill:none;stroke:#FFAF44;stroke-width:0.5;stroke-miterlimit:10;stroke-opacity:0.7;}
	.st5{fill:none;stroke:#FFAF44;stroke-width:0.5;stroke-miterlimit:10;stroke-opacity:0.5;}
	.st6{fill:none;stroke:#FFAF44;stroke-width:0.5;stroke-miterlimit:10;stroke-opacity:0.3;}
	.st7{fill:none;stroke:#FFAF44;stroke-width:0.5;stroke-miterlimit:10;stroke-opacity:0.1;}
</style>
<polygon id="frame" class="st0" points="2.4,4.4 268.7,4.4 273.3,40.6 7,40.6 "/>
<g id="elementTop">
	<line id="TabTop" class="st1" x1="238.8" y1="2.8" x2="221.5" y2="2.8"/>
	<g id="LineTop">
		<polygon class="st2" points="221.5,1.8 116.1,1.3 221.5,0.8 		"/>
	</g>
</g>
<g id="elementBot">
	<line id="TabBot" class="st1" x1="190.9" y1="42.2" x2="173.5" y2="42.2"/>
	<g id="LineBot">
		<polygon class="st2" points="173.5,44.2 68.2,43.7 173.5,43.2 		"/>
	</g>
</g>
<g id="boxes">
	<polygon id="box1" class="st3" points="256.9,7.4 266.1,7.4 269.9,37.7 260.6,37.7 	"/>
	<polygon id="box2" class="st4" points="245.4,7.4 254.7,7.4 258.4,37.7 249.2,37.7 	"/>
	<polygon id="box2_1_" class="st5" points="234,7.4 243.2,7.4 246.9,37.7 237.7,37.7 	"/>
	<polygon id="box4" class="st6" points="222.5,7.4 231.7,7.4 235.5,37.7 226.2,37.7 	"/>
	<polygon id="box5" class="st7" points="211,7.4 220.3,7.4 224,37.7 214.8,37.7 	"/>
</g>
</svg>
