<?xml version="1.0" encoding="utf-8"?>
<!-- Generator: Adobe Illustrator 24.0.2, SVG Export Plug-In . SVG Version: 6.00 Build 0)  -->
<svg version="1.1" id="settings" xmlns="http://www.w3.org/2000/svg" xmlns:xlink="http://www.w3.org/1999/xlink" x="0px" y="0px"
	 viewBox="0 0 23 23" style="enable-background:new 0 0 23 23;" xml:space="preserve">
<style type="text/css">
	.st0{fill-rule:evenodd;clip-rule:evenodd;fill:#565656;}
</style>
<path id="gear" class="st0" d="M12.4,4.7c-0.3-0.9-1.5-0.9-1.8,0L10.5,5c-0.1,0.3-0.2,0.5-0.4,0.8C9.9,6.1,9.6,6.2,9.4,6.3
	C9.1,6.5,8.8,6.5,8.5,6.5S7.9,6.4,7.7,6.3L7.3,6.1C6.5,5.6,5.6,6.5,6.1,7.3l0.2,0.3c0.1,0.3,0.2,0.5,0.2,0.8s0,0.6-0.1,0.9
	C6.3,9.6,6.1,9.8,5.9,10s-0.5,0.3-0.8,0.4l-0.3,0.1c-0.9,0.3-0.9,1.5,0,1.8l0.3,0.1c0.3,0.1,0.5,0.2,0.8,0.4
	c0.2,0.2,0.4,0.4,0.5,0.7s0.2,0.6,0.1,0.9c0,0.3-0.1,0.6-0.2,0.8l-0.2,0.3c-0.4,0.8,0.4,1.7,1.3,1.3l0.3-0.2
	c0.3-0.1,0.6-0.2,0.8-0.2c0.3,0,0.6,0,0.9,0.1c0.3,0.1,0.5,0.3,0.7,0.5s0.3,0.5,0.4,0.8l0.1,0.3c0.3,0.9,1.5,0.9,1.8,0l0.1-0.3
	c0.1-0.3,0.2-0.5,0.4-0.8c0.2-0.2,0.4-0.4,0.7-0.5s0.6-0.2,0.9-0.1c0.3,0,0.6,0.1,0.8,0.2l0.3,0.2c0.8,0.4,1.7-0.4,1.3-1.3l-0.2-0.3
	c-0.1-0.3-0.2-0.6-0.2-0.8c0-0.3,0-0.6,0.1-0.9c0.1-0.3,0.3-0.5,0.5-0.7s0.5-0.3,0.8-0.4l0.3-0.1c0.9-0.3,0.9-1.5,0-1.8l-0.3-0.1
	c-0.3-0.1-0.5-0.2-0.8-0.4c-0.2-0.2-0.4-0.4-0.5-0.7s-0.2-0.6-0.1-0.9c0-0.3,0.1-0.6,0.2-0.8l0.2-0.3c0.4-0.8-0.4-1.7-1.3-1.3
	l-0.3,0.2c-0.3,0.1-0.6,0.2-0.8,0.2c-0.3,0-0.6,0-0.9-0.1c-0.3-0.1-0.5-0.3-0.7-0.5S12.6,5.3,12.5,5L12.4,4.7L12.4,4.7z M9.6,4.4
	c0.6-1.9,3.3-1.9,3.8,0l0.1,0.3c0,0.1,0.1,0.3,0.2,0.4c0.1,0.1,0.2,0.2,0.3,0.2c0.1,0.1,0.3,0.1,0.4,0.1c0.1,0,0.3,0,0.4-0.1
	l0.3-0.2c1.7-0.9,3.6,1,2.7,2.7l-0.2,0.3c-0.1,0.1-0.1,0.3-0.1,0.4c0,0.1,0,0.3,0.1,0.4c0.1,0.1,0.1,0.2,0.2,0.3s0.2,0.2,0.4,0.2
	l0.3,0.1c1.9,0.6,1.9,3.3,0,3.8l-0.3,0.1c-0.1,0-0.3,0.1-0.4,0.2c-0.1,0.1-0.2,0.2-0.2,0.3c-0.1,0.1-0.1,0.3-0.1,0.4
	c0,0.1,0,0.3,0.1,0.4l0.2,0.3c0.9,1.7-1,3.6-2.7,2.7l-0.3-0.2c-0.1-0.1-0.3-0.1-0.4-0.1c-0.1,0-0.3,0-0.4,0.1
	c-0.1,0.1-0.2,0.1-0.3,0.2s-0.2,0.2-0.2,0.4l-0.1,0.3c-0.6,1.9-3.3,1.9-3.8,0l-0.1-0.3c0-0.1-0.1-0.3-0.2-0.4
	c-0.1-0.1-0.2-0.2-0.3-0.2c-0.1-0.1-0.3-0.1-0.4-0.1c-0.1,0-0.3,0-0.4,0.1l-0.3,0.2c-1.7,0.9-3.6-1-2.7-2.7l0.2-0.3
	c0.1-0.1,0.1-0.3,0.1-0.4c0-0.1,0-0.3-0.1-0.4c-0.1-0.1-0.1-0.2-0.2-0.3S5,13.4,4.8,13.4l-0.3-0.1c-1.9-0.6-1.9-3.3,0-3.8l0.3-0.1
	c0.1,0,0.3-0.1,0.4-0.2c0,0,0.1-0.1,0.2-0.2s0.1-0.3,0.1-0.4c0-0.1,0-0.3-0.1-0.4L5.1,7.8c-0.9-1.7,1-3.6,2.7-2.7l0.3,0.2
	c0.1,0.1,0.3,0.1,0.4,0.1c0.1,0,0.3,0,0.4-0.1C9,5.2,9.1,5.2,9.2,5.1C9.4,5,9.5,4.9,9.5,4.8L9.6,4.4z"/>
<path id="elipseint" class="st0" d="M11.5,9.1c-0.6,0-1.3,0.3-1.7,0.7c-0.5,0.5-0.7,1.1-0.7,1.7s0.3,1.3,0.7,1.7
	c0.5,0.5,1.1,0.7,1.7,0.7s1.3-0.3,1.7-0.7c0.5-0.5,0.7-1.1,0.7-1.7s-0.3-1.3-0.7-1.7C12.8,9.3,12.1,9.1,11.5,9.1z M8,11.5
	c0-0.5,0.1-0.9,0.3-1.3C8.4,9.7,8.7,9.4,9,9c0.3-0.3,0.7-0.6,1.1-0.8C10.6,8.1,11,8,11.5,8s0.9,0.1,1.3,0.3C13.3,8.4,13.6,8.7,14,9
	c0.3,0.3,0.6,0.7,0.8,1.1c0.2,0.4,0.3,0.9,0.3,1.3c0,0.9-0.4,1.8-1,2.5c-0.7,0.7-1.5,1-2.5,1S9.7,14.6,9,14C8.4,13.3,8,12.4,8,11.5z
	"/>
</svg>
