<svg width="15" height="14" viewBox="0 0 15 14" fill="none" xmlns="http://www.w3.org/2000/svg">
<path fill-rule="evenodd" clip-rule="evenodd" d="M7.4999 7.59998C7.85889 7.59998 8.1499 7.33135 8.1499 6.99998L8.1499 4.59997C8.1499 4.2686 7.85889 3.99997 7.4999 3.99997C7.14092 3.99997 6.8499 4.2686 6.8499 4.59997L6.8499 6.99998C6.8499 7.33135 7.14092 7.59998 7.4999 7.59998Z" fill="#FF5A44"/>
<path fill-rule="evenodd" clip-rule="evenodd" d="M7.25297 9.95206C7.41122 10.0121 7.58872 10.0121 7.74697 9.95206C7.82675 9.92351 7.89965 9.88069 7.96147 9.82606C8.01888 9.76774 8.06505 9.70077 8.09797 9.62806C8.13435 9.55685 8.15216 9.47877 8.14997 9.40006C8.15096 9.24058 8.08314 9.08729 7.96147 8.97406C7.89828 8.92106 7.82574 8.87845 7.74697 8.84806C7.547 8.77223 7.31928 8.79313 7.1394 8.90382C6.95953 9.01451 6.85104 9.20051 6.84997 9.40006C6.85236 9.55892 6.91969 9.71108 7.03847 9.82606C7.10028 9.88069 7.17318 9.92351 7.25297 9.95206Z" fill="#FF5A44"/>
<path fill-rule="evenodd" clip-rule="evenodd" d="M7.5 13C11.0899 13 14 10.3137 14 7C14 3.68629 11.0899 1 7.5 1C3.91015 1 1 3.68629 1 7C1 8.5913 1.68482 10.1174 2.90381 11.2426C4.12279 12.3679 5.77609 13 7.5 13Z" stroke="#FF5A44" stroke-width="1.5"/>
</svg>
