<?xml version="1.0" encoding="utf-8"?>
<!-- Generator: Adobe Illustrator 24.0.2, SVG Export Plug-In . SVG Version: 6.00 Build 0)  -->
<svg version="1.1" id="SeasonLeague" xmlns="http://www.w3.org/2000/svg" xmlns:xlink="http://www.w3.org/1999/xlink" x="0px"
	 y="0px" viewBox="0 0 60 60" style="enable-background:new 0 0 60 60;" xml:space="preserve">
<style type="text/css">
	.st0{fill:#FFAF44;}
	.st1{fill:#FFD296;}
</style>
<g id="SeasonL">
	<path class="st0" d="M13.7,44.1c-0.9,0-1.7-0.5-2.1-1.3L2.1,23.1L16.1,28L16,28.5c-0.2,0.5-0.3,1-0.3,1.6c0,2.6,1.9,4.8,4.5,5.2
		c0.3,0,0.5,0.1,0.7,0.1c2.6,0,4.8-1.9,5.2-4.5c0.4-2.8-1.6-5.5-4.4-5.9l-1-0.1l9.2-9l9.5,9.1l-1,0.2c-2.5,0.4-4.4,2.5-4.4,5.1
		c0,0.1,0,0.2,0,0.3c0.1,2.8,2.4,5.1,5.2,5.1l0.2,0c2.9-0.1,5.1-2.5,5.1-5.4c0-0.6-0.1-1.1-0.3-1.7L43.9,28l14-5l-9.7,19.8
		c-0.4,0.8-1.2,1.3-2.1,1.3L13.7,44.1z"/>
	<path class="st1" d="M29.9,16.4l8.4,8c-2.8,0.4-4.8,2.8-4.8,5.6c0,0.1,0,0.2,0,0.3c0.1,3.1,2.6,5.5,5.7,5.5c0.1,0,0.1,0,0.2,0
		c3.2-0.1,5.6-2.7,5.5-5.9c0-0.6-0.1-1.2-0.3-1.8L57,23.8l-9.2,18.7c-0.3,0.6-0.9,1-1.6,1c0,0,0,0,0,0H13.8c0,0,0,0,0,0
		c-0.7,0-1.4-0.4-1.7-1L3,23.9l12.5,4.4c-0.2,0.6-0.3,1.1-0.3,1.7c0,2.8,2.1,5.3,4.9,5.7c0.3,0,0.5,0.1,0.8,0.1
		c2.8,0,5.2-2.1,5.6-4.9c0.4-3.1-1.7-6-4.8-6.5L29.9,16.4 M29.8,15.1l-0.7,0.7l-8.1,8l-1.4,1.4l2,0.3c2.6,0.4,4.4,2.8,4,5.3
		c-0.3,2.3-2.3,4-4.7,4c-0.2,0-0.4,0-0.7,0c-2.3-0.3-4-2.3-4-4.7c0-0.5,0.1-1,0.2-1.4l0.3-0.9l-0.9-0.3L3.4,23l-2.3-0.8l1.1,2.2
		l9,18.6c0.5,1,1.5,1.6,2.6,1.6h0l0.1,0l32.3,0c0,0,0,0,0,0c1.1,0,2.1-0.6,2.6-1.6l9.2-18.7l1.1-2.2l-2.3,0.8l-12.4,4.4l-0.9,0.3
		l0.3,0.9c0.2,0.5,0.2,1,0.2,1.5c0,1.3-0.4,2.5-1.3,3.4c-0.9,0.9-2,1.4-3.3,1.5l-0.1,0c-2.6,0-4.6-2-4.7-4.6c0-0.1,0-0.2,0-0.3
		c0-2.3,1.7-4.3,3.9-4.6l2-0.3l-1.5-1.4l-8.4-8L29.8,15.1L29.8,15.1z"/>
</g>
</svg>
