<svg width="111" height="97" viewBox="0 0 111 97" fill="none" xmlns="http://www.w3.org/2000/svg">
<g filter="url(#filter0_d)">
<path d="M55.613 40.9901L50.9945 45.4976C52.7708 45.7418 53.9921 47.385 53.7478 49.1614C53.5258 50.7823 52.1269 51.9369 50.5504 51.9369C50.3949 51.9369 50.2395 51.9369 50.0841 51.9147C48.4853 51.6927 47.3085 50.316 47.3085 48.7173C47.3085 48.3842 47.3751 48.0511 47.4639 47.7403L40.4028 45.2311L45.5099 55.7784C45.6875 56.1336 46.065 56.3779 46.4647 56.3779H46.4869H64.8502H64.8724C65.2721 56.3779 65.6273 56.1558 65.805 55.7784L71.0009 45.1867L63.962 47.7181C64.073 48.0511 64.1174 48.3842 64.1174 48.7395C64.1618 50.5381 62.7629 52.0258 60.9643 52.0702C60.9421 52.0702 60.8977 52.0702 60.8755 52.0702C59.1214 52.0702 57.6781 50.6713 57.6337 48.9171C57.6337 48.8505 57.6337 48.7839 57.6337 48.7395C57.6337 47.1629 58.7883 45.8085 60.3426 45.5642L55.613 40.9901Z" fill="#F1AA57"/>
<g filter="url(#filter1_d)">
<path d="M55.613 40.9901L50.9945 45.4976C52.7708 45.7418 53.9921 47.385 53.7478 49.1614C53.5258 50.7823 52.1269 51.9369 50.5504 51.9369C50.3949 51.9369 50.2395 51.9369 50.0841 51.9147C48.4853 51.6927 47.3085 50.316 47.3085 48.7173C47.3085 48.3842 47.3751 48.0511 47.4639 47.7403L40.4028 45.2311L45.5099 55.7784C45.6875 56.1336 46.065 56.3779 46.4647 56.3779H46.4869H64.8502H64.8724C65.2721 56.3779 65.6273 56.1558 65.805 55.7784L71.0009 45.1867L63.962 47.7181C64.073 48.0511 64.1174 48.3842 64.1174 48.7395C64.1618 50.5381 62.7629 52.0258 60.9643 52.0702C60.9421 52.0702 60.8977 52.0702 60.8755 52.0702C59.1214 52.0702 57.7003 50.6713 57.6337 48.9171C57.6337 48.8505 57.6337 48.7839 57.6337 48.7395C57.6337 47.1629 58.7883 45.8085 60.3426 45.5642L55.613 40.9901ZM55.6352 42.0781L58.8993 45.2089C57.6781 45.8973 56.8565 47.2074 56.8565 48.6951C56.8565 48.7617 56.8565 48.8505 56.8565 48.9171C56.9231 51.1154 58.6773 52.8251 60.8755 52.8251C60.9199 52.8251 60.9421 52.8251 60.9866 52.8251C62.0524 52.8029 63.0516 52.3366 63.8065 51.5595C64.5393 50.7823 64.939 49.7609 64.8946 48.6951C64.8946 48.5396 64.8724 48.362 64.8502 48.2066L69.4021 46.5634L65.0944 55.4231C65.05 55.5119 64.9834 55.5563 64.8724 55.5563H46.4869H46.4647C46.3537 55.5563 46.2649 55.4897 46.2205 55.4009L41.9572 46.63L46.5535 48.251C46.5313 48.4064 46.5313 48.5618 46.5313 48.7173C46.5313 50.7157 48.019 52.4254 49.9953 52.7141C50.1951 52.7363 50.3727 52.7585 50.5726 52.7585C52.571 52.7585 54.2807 51.2708 54.5472 49.2946C54.7915 47.5848 53.9255 45.9639 52.4822 45.1867L55.6352 42.0781Z" fill="#FFB861"/>
</g>
</g>
<defs>
<filter id="filter0_d" x="0.40284" y="0.990051" width="110.598" height="95.3878" filterUnits="userSpaceOnUse" color-interpolation-filters="sRGB">
<feFlood flood-opacity="0" result="BackgroundImageFix"/>
<feColorMatrix in="SourceAlpha" type="matrix" values="0 0 0 0 0 0 0 0 0 0 0 0 0 0 0 0 0 0 127 0"/>
<feMorphology radius="10" operator="dilate" in="SourceAlpha" result="effect1_dropShadow"/>
<feOffset/>
<feGaussianBlur stdDeviation="15"/>
<feColorMatrix type="matrix" values="0 0 0 0 0.945098 0 0 0 0 0.666667 0 0 0 0 0.341176 0 0 0 0.5 0"/>
<feBlend mode="normal" in2="BackgroundImageFix" result="effect1_dropShadow"/>
<feBlend mode="normal" in="SourceGraphic" in2="effect1_dropShadow" result="shape"/>
</filter>
<filter id="filter1_d" x="36.4028" y="40.9901" width="38.598" height="23.3878" filterUnits="userSpaceOnUse" color-interpolation-filters="sRGB">
<feFlood flood-opacity="0" result="BackgroundImageFix"/>
<feColorMatrix in="SourceAlpha" type="matrix" values="0 0 0 0 0 0 0 0 0 0 0 0 0 0 0 0 0 0 127 0"/>
<feOffset dy="4"/>
<feGaussianBlur stdDeviation="2"/>
<feColorMatrix type="matrix" values="0 0 0 0 0.991667 0 0 0 0 0.410302 0 0 0 0 0.161146 0 0 0 0.25 0"/>
<feBlend mode="normal" in2="BackgroundImageFix" result="effect1_dropShadow"/>
<feBlend mode="normal" in="SourceGraphic" in2="effect1_dropShadow" result="shape"/>
</filter>
</defs>
</svg>
